<svg width="30" height="29" viewBox="0 0 30 29" fill="none" xmlns="http://www.w3.org/2000/svg">
<path d="M29.9558 10.864C29.8982 10.6869 29.7923 10.5295 29.6501 10.4093C29.5079 10.2892 29.3349 10.2112 29.1508 10.184L20.0058 8.84899L15.9008 0.558985C15.8183 0.391254 15.6906 0.249975 15.5319 0.151173C15.3733 0.0523711 15.1901 0 15.0033 0C14.8164 0 14.6332 0.0523711 14.4746 0.151173C14.316 0.249975 14.1882 0.391254 14.1058 0.558985L10.0058 8.84899L0.860758 10.179C0.675153 10.2051 0.500618 10.2828 0.357062 10.4033C0.213505 10.5238 0.106705 10.6823 0.0488435 10.8605C-0.00901814 11.0388 -0.0156121 11.2298 0.0298136 11.4116C0.0752394 11.5934 0.170856 11.7589 0.305758 11.889L6.93076 18.344L5.36576 27.459C5.33416 27.6428 5.35461 27.8318 5.4248 28.0047C5.49499 28.1775 5.61213 28.3273 5.76297 28.437C5.91381 28.5468 6.09233 28.6121 6.27838 28.6257C6.46442 28.6393 6.65056 28.6006 6.81576 28.514L15.0058 24.209L23.1908 28.514C23.356 28.6006 23.5421 28.6393 23.7281 28.6257C23.9142 28.6121 24.0927 28.5468 24.2435 28.437C24.3944 28.3273 24.5115 28.1775 24.5817 28.0047C24.6519 27.8318 24.6724 27.6428 24.6408 27.459L23.0808 18.344L29.7058 11.889C29.8388 11.7584 29.9328 11.5933 29.9769 11.4121C30.0211 11.231 30.0138 11.0412 29.9558 10.864Z" fill="#FBBB00"/>
</svg>
