<svg width="40" height="40" viewBox="0 0 40 40" fill="none" xmlns="http://www.w3.org/2000/svg">
<g clip-path="url(#clip0_248_361)">
<path d="M20 0C14.6581 0 9.63562 2.08062 5.85875 5.85875C2.08062 9.63562 0 14.6581 0 20C0 25.3419 2.08063 30.3644 5.85813 34.1413C9.63562 37.9194 14.6581 40 20 40C25.3419 40 30.3644 37.9194 34.1419 34.1413C37.9194 30.3644 40 25.3419 40 20C40 14.6581 37.9194 9.63562 34.1419 5.85875C30.3644 2.08062 25.3419 0 20 0ZM32.3737 32.3737C29.0688 35.6794 24.6744 37.5 20 37.5C15.3256 37.5 10.9312 35.6794 7.62625 32.3737C4.32062 29.0688 2.5 24.6744 2.5 20C2.5 15.3256 4.32062 10.9312 7.62625 7.62625C10.9312 4.32062 15.3256 2.5 20 2.5C24.6744 2.5 29.0688 4.32062 32.3744 7.62625C35.68 10.9312 37.5 15.3256 37.5 20C37.5 24.6744 35.68 29.0688 32.3737 32.3737Z" fill="white"/>
<path d="M29.2425 22.6012L21.25 19.1762V6.25C21.25 5.91848 21.1183 5.60054 20.8839 5.36612C20.6495 5.1317 20.3315 5 20 5C19.6685 5 19.3505 5.1317 19.1161 5.36612C18.8817 5.60054 18.75 5.91848 18.75 6.25V20C18.75 20.2446 18.8218 20.4838 18.9565 20.688C19.0911 20.8922 19.2827 21.0524 19.5075 21.1488L28.2575 24.8988C28.4083 24.9637 28.5705 24.9982 28.7347 25.0003C28.8988 25.0025 29.0618 24.9722 29.2143 24.9112C29.3668 24.8503 29.5057 24.7598 29.6232 24.6451C29.7406 24.5303 29.8343 24.3935 29.8988 24.2425C30.0293 23.9378 30.0336 23.5938 29.9105 23.286C29.7874 22.9782 29.5471 22.7319 29.2425 22.6012ZM7.5 18.75H6.25C5.91848 18.75 5.60054 18.8817 5.36612 19.1161C5.1317 19.3505 5 19.6685 5 20C5 20.3315 5.1317 20.6495 5.36612 20.8839C5.60054 21.1183 5.91848 21.25 6.25 21.25H7.5C7.83152 21.25 8.14946 21.1183 8.38388 20.8839C8.6183 20.6495 8.75 20.3315 8.75 20C8.75 19.6685 8.6183 19.3505 8.38388 19.1161C8.14946 18.8817 7.83152 18.75 7.5 18.75ZM31.25 20C31.25 20.3315 31.3817 20.6495 31.6161 20.8839C31.8505 21.1183 32.1685 21.25 32.5 21.25H33.75C34.0815 21.25 34.3995 21.1183 34.6339 20.8839C34.8683 20.6495 35 20.3315 35 20C35 19.6685 34.8683 19.3505 34.6339 19.1161C34.3995 18.8817 34.0815 18.75 33.75 18.75H32.5C32.1685 18.75 31.8505 18.8817 31.6161 19.1161C31.3817 19.3505 31.25 19.6685 31.25 20ZM20 31.25C19.6685 31.25 19.3505 31.3817 19.1161 31.6161C18.8817 31.8505 18.75 32.1685 18.75 32.5V33.75C18.75 34.0815 18.8817 34.3995 19.1161 34.6339C19.3505 34.8683 19.6685 35 20 35C20.3315 35 20.6495 34.8683 20.8839 34.6339C21.1183 34.3995 21.25 34.0815 21.25 33.75V32.5C21.25 32.1685 21.1183 31.8505 20.8839 31.6161C20.6495 31.3817 20.3315 31.25 20 31.25Z" fill="white"/>
</g>
<defs>
<clipPath id="clip0_248_361">
<rect width="40" height="40" rx="5" fill="white"/>
</clipPath>
</defs>
</svg>
