<svg width="23" height="23" viewBox="0 0 23 23" fill="none" xmlns="http://www.w3.org/2000/svg">
<path d="M13.5254 11.4988L22.5751 2.46248C22.8456 2.19197 22.9975 1.82506 22.9975 1.44249C22.9975 1.05992 22.8456 0.693015 22.5751 0.422496C22.3046 0.151976 21.9377 0 21.5552 0C21.1727 0 20.8058 0.151976 20.5353 0.422496L11.5 9.47315L2.46467 0.422496C2.19418 0.151976 1.82732 3.39665e-07 1.44479 3.42515e-07C1.06226 3.45365e-07 0.695393 0.151976 0.424902 0.422496C0.154412 0.693015 0.00245181 1.05992 0.0024518 1.44249C0.0024518 1.82506 0.154412 2.19197 0.424902 2.46248L9.47459 11.4988L0.424902 20.5351C0.290265 20.6686 0.183401 20.8275 0.110474 21.0026C0.0375469 21.1776 0 21.3654 0 21.5551C0 21.7447 0.0375469 21.9325 0.110474 22.1075C0.183401 22.2826 0.290265 22.4415 0.424902 22.5751C0.55844 22.7097 0.717313 22.8166 0.892359 22.8895C1.0674 22.9625 1.25516 23 1.44479 23C1.63442 23 1.82217 22.9625 1.99722 22.8895C2.17226 22.8166 2.33114 22.7097 2.46467 22.5751L11.5 13.5244L20.5353 22.5751C20.6689 22.7097 20.8277 22.8166 21.0028 22.8895C21.1778 22.9625 21.3656 23 21.5552 23C21.7448 23 21.9326 22.9625 22.1076 22.8895C22.2827 22.8166 22.4416 22.7097 22.5751 22.5751C22.7097 22.4415 22.8166 22.2826 22.8895 22.1075C22.9625 21.9325 23 21.7447 23 21.5551C23 21.3654 22.9625 21.1776 22.8895 21.0026C22.8166 20.8275 22.7097 20.6686 22.5751 20.5351L13.5254 11.4988Z" fill="white"/>
</svg>
