<svg width="24" height="24" viewBox="0 0 24 24" fill="none" xmlns="http://www.w3.org/2000/svg">
<g clip-path="url(#clip0_907_268)">
<path d="M17.81 13.3899C19.5704 11.9438 20.7116 9.87968 21 7.61985C21.0157 7.48853 21.0055 7.35539 20.9698 7.22803C20.9341 7.10068 20.8736 6.9816 20.7919 6.8776C20.7102 6.77359 20.6088 6.68671 20.4935 6.62189C20.3782 6.55708 20.2513 6.51561 20.12 6.49985C19.9887 6.48409 19.8555 6.49435 19.7282 6.53005C19.6008 6.56574 19.4817 6.62617 19.3777 6.70789C19.2737 6.78961 19.1868 6.89101 19.122 7.0063C19.0572 7.1216 19.0157 7.24853 19 7.37985C18.7609 9.06613 17.9211 10.6094 16.6351 11.726C15.349 12.8426 13.7031 13.4574 12 13.4574C10.2968 13.4574 8.65092 12.8426 7.36486 11.726C6.07881 10.6094 5.23904 9.06613 4.99997 7.37985C4.98421 7.24853 4.94274 7.1216 4.87793 7.0063C4.81312 6.89101 4.72623 6.78961 4.62223 6.70789C4.51822 6.62617 4.39915 6.56574 4.27179 6.53005C4.14443 6.49435 4.01129 6.48409 3.87997 6.49985C3.74865 6.51561 3.62172 6.55708 3.50642 6.62189C3.39113 6.68671 3.28973 6.77359 3.20801 6.8776C3.1263 6.9816 3.06587 7.10068 3.03017 7.22803C2.99447 7.35539 2.98421 7.48853 2.99997 7.61985C3.28581 9.87819 4.4233 11.9421 6.17997 13.3899L3.87997 15.7099C3.71615 15.9012 3.63054 16.1472 3.64026 16.3989C3.64998 16.6506 3.75431 16.8893 3.93241 17.0674C4.1105 17.2455 4.34924 17.3498 4.60092 17.3596C4.8526 17.3693 5.09867 17.2837 5.28997 17.1199L7.89997 14.5199C8.86978 15.0099 9.91983 15.3216 11 15.4398V18.9999C11 19.2651 11.1053 19.5194 11.2929 19.707C11.4804 19.8945 11.7348 19.9999 12 19.9999C12.2652 19.9999 12.5195 19.8945 12.7071 19.707C12.8946 19.5194 13 19.2651 13 18.9999V15.4398C14.0801 15.3216 15.1302 15.0099 16.1 14.5199L18.71 17.1199C18.9013 17.2837 19.1473 17.3693 19.399 17.3596C19.6507 17.3498 19.8894 17.2455 20.0675 17.0674C20.2456 16.8893 20.35 16.6506 20.3597 16.3989C20.3694 16.1472 20.2838 15.9012 20.12 15.7099L17.81 13.3899Z" fill="white"/>
</g>
<defs>
<clipPath id="clip0_907_268">
<rect width="24" height="24" fill="white"/>
</clipPath>
</defs>
</svg>
