<svg width="19" height="14" viewBox="0 0 19 14" fill="none" xmlns="http://www.w3.org/2000/svg">
<path d="M9.5 0C6.975 0 4.95312 1.15 3.48125 2.51875C2.01875 3.875 1.04062 5.5 0.578125 6.61562C0.475 6.8625 0.475 7.1375 0.578125 7.38437C1.04062 8.5 2.01875 10.125 3.48125 11.4812C4.95312 12.85 6.975 14 9.5 14C12.025 14 14.0469 12.85 15.5188 11.4812C16.9813 10.1219 17.9594 8.5 18.425 7.38437C18.5281 7.1375 18.5281 6.8625 18.425 6.61562C17.9594 5.5 16.9813 3.875 15.5188 2.51875C14.0469 1.15 12.025 0 9.5 0ZM5 7C5 4.51638 7.01638 2.5 9.5 2.5C11.9836 2.5 14 4.51638 14 7C14 9.48362 11.9836 11.5 9.5 11.5C7.01638 11.5 5 9.48362 5 7ZM9.5 5C9.5 6.10313 8.60312 7 7.5 7C7.27812 7 7.06562 6.9625 6.86562 6.89687C6.69375 6.84062 6.49375 6.94688 6.5 7.12813C6.50938 7.34375 6.54063 7.55937 6.6 7.775C7.02812 9.375 8.675 10.325 10.275 9.89688C11.875 9.46875 12.825 7.82188 12.3969 6.22188C12.05 4.925 10.9031 4.05312 9.62813 4C9.44688 3.99375 9.34063 4.19062 9.39688 4.36562C9.4625 4.56562 9.5 4.77812 9.5 5Z" fill="white"/>
</svg>
