<svg width="40" height="40" viewBox="0 0 40 40" fill="none" xmlns="http://www.w3.org/2000/svg">
<path d="M13.3333 8.3335C12.4493 8.3335 11.6014 8.68469 10.9763 9.30981C10.3512 9.93493 10 10.7828 10 11.6668V28.3335C10 29.2176 10.3512 30.0654 10.9763 30.6905C11.6014 31.3156 12.4493 31.6668 13.3333 31.6668C14.2174 31.6668 15.0652 31.3156 15.6904 30.6905C16.3155 30.0654 16.6667 29.2176 16.6667 28.3335V11.6668C16.6667 10.7828 16.3155 9.93493 15.6904 9.30981C15.0652 8.68469 14.2174 8.3335 13.3333 8.3335ZM26.6667 8.3335C25.7826 8.3335 24.9348 8.68469 24.3096 9.30981C23.6845 9.93493 23.3333 10.7828 23.3333 11.6668V28.3335C23.3333 29.2176 23.6845 30.0654 24.3096 30.6905C24.9348 31.3156 25.7826 31.6668 26.6667 31.6668C27.5507 31.6668 28.3986 31.3156 29.0237 30.6905C29.6488 30.0654 30 29.2176 30 28.3335V11.6668C30 10.7828 29.6488 9.93493 29.0237 9.30981C28.3986 8.68469 27.5507 8.3335 26.6667 8.3335Z" fill="white"/>
</svg>
