<svg width="48" height="53" viewBox="0 0 48 53" fill="none" xmlns="http://www.w3.org/2000/svg">
<path d="M2 14.099L22.9214 2.40165C23.315 2.18167 23.5116 2.0717 23.72 2.0286C23.9048 1.99047 24.0951 1.99047 24.2799 2.0286C24.4884 2.0717 24.685 2.18167 25.0786 2.40165L46 14.099M2 14.099V37.4207C2 37.8865 2 38.1191 2.06872 38.3271C2.12955 38.511 2.22897 38.68 2.36042 38.8227C2.50903 38.9842 2.71316 39.0985 3.12142 39.3267L24 51M2 14.099L24 25.0326M46 14.099V37.4207C46 37.8865 46 38.1191 45.9313 38.3271C45.8705 38.511 45.7709 38.68 45.6395 38.8227C45.491 38.9842 45.2869 39.0985 44.8785 39.3267L24 51M46 14.099L24 25.0326M24 51V25.0326" stroke="#A61717" stroke-width="4" stroke-linecap="round" stroke-linejoin="round"/>
</svg>
