<svg width="30" height="30" viewBox="0 0 30 30" fill="none" xmlns="http://www.w3.org/2000/svg">
<path d="M29.9499 11.55C29.8923 11.373 29.7865 11.2155 29.6442 11.0954C29.502 10.9752 29.3291 10.8972 29.1449 10.87L19.9999 9.53502L15.8949 1.24502C15.8125 1.07729 15.6847 0.93601 15.5261 0.837208C15.3674 0.738406 15.1843 0.686035 14.9974 0.686035C14.8105 0.686035 14.6274 0.738406 14.4687 0.837208C14.3101 0.93601 14.1823 1.07729 14.0999 1.24502L9.9999 9.53502L0.854899 10.865C0.669293 10.8911 0.494759 10.9689 0.351202 11.0894C0.207645 11.2099 0.100846 11.3683 0.0429841 11.5466C-0.0148775 11.7248 -0.0214715 11.9158 0.0239542 12.0976C0.06938 12.2795 0.164997 12.4449 0.299899 12.575L6.9249 19.03L5.3599 28.145C5.3283 28.3289 5.34875 28.5179 5.41894 28.6907C5.48913 28.8635 5.60627 29.0133 5.75711 29.123C5.90795 29.2328 6.08648 29.2982 6.27252 29.3118C6.45856 29.3254 6.6447 29.2867 6.8099 29.2L14.9999 24.895L23.1849 29.2C23.3501 29.2867 23.5362 29.3254 23.7223 29.3118C23.9083 29.2982 24.0869 29.2328 24.2377 29.123C24.3885 29.0133 24.5057 28.8635 24.5759 28.6907C24.646 28.5179 24.6665 28.3289 24.6349 28.145L23.0749 19.03L29.6999 12.575C29.833 12.4445 29.9269 12.2793 29.9711 12.0982C30.0152 11.9171 30.0079 11.7272 29.9499 11.55Z" fill="black"/>
</svg>
